# xmcd
#
# Track frame offsets:
#	150
#	16315
#	35638
#	55700
#	82240
#	93956
#	111538
#	127472
#
# Disc length: 1882 seconds
#
# Revision: 1
# Processed by: cddbd v1.5.1PL0 Copyright (c) Steve Scherf et al.
# Submitted via: audiograbber 1.83.01
#
DISCID=70075808
DTITLE=Georgia Satellites - Dutch radio broadcast, early 90's
DYEAR=1900
DGENRE=
TTITLE0=Comes To Me Naturally
TTITLE1=Hipshake Thing
TTITLE2=Can't Stand The Pain
TTITLE3=Keep Your Hands To Yourself incl. It's Only Rock and Roll
TTITLE4=Open All Night
TTITLE5=Sheila
TTITLE6=White Lightning
TTITLE7=Dunk and Dine
EXTD=
EXTT0=
EXTT1=
EXTT2=
EXTT3=
EXTT4=
EXTT5=
EXTT6=
EXTT7=
PLAYORDER=
